<svg xmlns="http://www.w3.org/2000/svg" viewBox="0 0 770.25 159.99"><defs><style>.cls-1{fill:#fff;}</style></defs><title>アセット 1</title><g id="レイヤー_2" data-name="レイヤー 2"><g id="レイヤー_1-2" data-name="レイヤー 1"><path class="cls-1" d="M265.25,67.17c-16.66-7-19.59-11.7-19.59-18.92,0-6.15,4.43-12.73,16.84-12.73,10.17,0,16.65,3.8,17.84,4.56l6.58,4.19,8.34-23L291,18.58C284.26,14.43,273.8,12,263,12c-25,0-43.11,16-43.11,38,0,17.85,11.61,31.26,34.51,39.84,15.12,6.13,18.17,12.06,18.17,19.64,0,9.8-7.07,15.42-19.38,15.42-7.88,0-16.51-2.45-22.5-6.4l-6.8-4.48-7.68,23,3.78,2.68c7.25,5.15,20.58,8.75,32.41,8.75,27.58,0,46.12-16.12,46.12-40.1C298.5,95.73,294.72,79.63,265.25,67.17Z"/><polygon class="cls-1" points="396.96 48.01 364.08 48.01 339.7 76.88 339.7 11.52 314.07 11.52 314.07 146.73 339.7 146.73 339.7 109.29 340.8 108.04 367.84 146.73 399.52 146.73 358.43 90.3 396.96 48.01"/><path class="cls-1" d="M442.41,46c-26.32,0-44.7,21.69-44.7,52.76,0,29.76,18.66,49.75,46.44,49.75,15.11,0,25.14-3.76,29.77-6l4.65-2.25-5.7-21.37-6.59,2.72a48.64,48.64,0,0,1-20.24,4c-9.34,0-20.31-3.72-22.59-20.39h57.81l.44-5.78c.18-2.3.34-4.62.34-7.75C482,68.88,469.78,46,442.41,46Zm-1.27,22.47c4.29,0,7.58,1.22,10.07,3.74s4.09,6.2,4.87,10.64H424.81C426.8,76.55,431.28,68.43,441.14,68.43Z"/><path class="cls-1" d="M588.77,25.43l-25.48,6.78V48H528.92V25.43l-25.47,6.78V48H490.16V70.8h13.29v43.26c0,6.27.42,13.58,3.52,20.18s9.73,14.23,24.24,14.23c6.23,0,11.54-.9,15.36-2.6l4-1.79-1.77-22.68-7.7,2.75a19.43,19.43,0,0,1-6.75.9c-2.3,0-5.46,0-5.46-10.67V70.8h34.37v43.26c0,6.27.42,13.58,3.52,20.18s9.73,14.23,24.25,14.23c6.22,0,11.53-.9,15.35-2.6l4-1.79-1.78-22.68-7.7,2.75a19.38,19.38,0,0,1-6.75.9c-2.3,0-5.45,0-5.45-10.67V70.8h22.3V48h-22.3Z"/><path class="cls-1" d="M663,46c-26.31,0-44.69,21.69-44.69,52.76,0,29.76,18.66,49.75,46.43,49.75,15.12,0,25.14-3.76,29.77-6l4.65-2.25-5.69-21.37-6.59,2.72a48.64,48.64,0,0,1-20.24,4c-9.34,0-20.32-3.72-22.59-20.39h57.8l.44-5.78c.18-2.29.34-4.61.34-7.75C702.63,68.88,690.38,46,663,46Zm-1.27,22.47c4.29,0,7.59,1.22,10.07,3.74s4.1,6.2,4.88,10.64H645.4C647.4,76.55,651.88,68.43,661.73,68.43Z"/><path class="cls-1" d="M764.51,46.11c-6.55,0-17.18,3.43-24.27,10.15l-.19-8H716.68c.35,8.84.7,18.56.7,30.75v67.69h25.74V95.77C743.12,79,752,71,763.64,71a35.21,35.21,0,0,1,6.61.53V46.64A26.08,26.08,0,0,0,764.51,46.11Z"/><path class="cls-1" d="M74.42,77.42a136.23,136.23,0,0,0,19.5-50.77,137.42,137.42,0,0,0,1.93-25c-.83-.17-1.67-.33-2.51-.47A79.94,79.94,0,0,0,16.21,128.19a138.22,138.22,0,0,0,22-12.74A136.77,136.77,0,0,0,74.42,77.42Z"/><path class="cls-1" d="M114.33,7.75A95.31,95.31,0,0,0,131.86,69,95.56,95.56,0,0,0,158.64,94.5l.21-1.15A80.14,80.14,0,0,0,114.33,7.75Z"/><path class="cls-1" d="M104.64,57.32A155.26,155.26,0,0,1,29.55,142a80,80,0,0,0,123.52-29.56A114.49,114.49,0,0,1,104.64,57.32Z"/></g></g></svg>
